<svg width="250" height="239" viewBox="0 0 250 239" fill="none" xmlns="http://www.w3.org/2000/svg">
<path d="M27.0908 17.6674C31.9696 17.6674 35.9247 13.7124 35.9247 8.83368C35.9247 3.95497 31.9696 0 27.0908 0C22.2119 0 18.2568 3.95497 18.2568 8.83368C18.2568 13.7124 22.2119 17.6674 27.0908 17.6674Z" fill="#418AFF"/>
<path d="M50.7461 39.8497C55.9502 39.8497 60.1689 35.6311 60.1689 30.4271C60.1689 25.2232 55.9502 21.0045 50.7461 21.0045C45.542 21.0045 41.3232 25.2232 41.3232 30.4271C41.3232 35.6311 45.542 39.8497 50.7461 39.8497Z" fill="#418AFF"/>
<path d="M74.3033 61.9339C79.8326 61.9339 84.3151 57.4516 84.3151 51.9224C84.3151 46.3932 79.8326 41.9109 74.3033 41.9109C68.7739 41.9109 64.2915 46.3932 64.2915 51.9224C64.2915 57.4516 68.7739 61.9339 74.3033 61.9339Z" fill="#418AFF"/>
<path d="M97.9586 84.1162C103.813 84.1162 108.559 79.3703 108.559 73.5158C108.559 67.6614 103.813 62.9154 97.9586 62.9154C92.104 62.9154 87.3579 67.6614 87.3579 73.5158C87.3579 79.3703 92.104 84.1162 97.9586 84.1162Z" fill="#418AFF"/>
<path d="M121.614 106.299C127.794 106.299 132.804 101.289 132.804 95.1092C132.804 88.9295 127.794 83.9199 121.614 83.9199C115.434 83.9199 110.424 88.9295 110.424 95.1092C110.424 101.289 115.434 106.299 121.614 106.299Z" fill="#418AFF"/>
<path d="M145.269 128.383C151.774 128.383 157.047 123.109 157.047 116.605C157.047 110.1 151.774 104.826 145.269 104.826C138.764 104.826 133.49 110.1 133.49 116.605C133.49 123.109 138.764 128.383 145.269 128.383Z" fill="#418AFF"/>
<path d="M169.71 149.584C175.564 149.584 180.31 144.838 180.31 138.983C180.31 133.129 175.564 128.383 169.71 128.383C163.855 128.383 159.109 133.129 159.109 138.983C159.109 144.838 163.855 149.584 169.71 149.584Z" fill="#418AFF"/>
<path d="M194.248 170.588C199.398 170.588 203.573 166.413 203.573 161.264C203.573 156.114 199.398 151.939 194.248 151.939C189.098 151.939 184.923 156.114 184.923 161.264C184.923 166.413 189.098 170.588 194.248 170.588Z" fill="#418AFF"/>
<path d="M218.689 191.789C223.188 191.789 226.836 188.142 226.836 183.642C226.836 179.143 223.188 175.496 218.689 175.496C214.189 175.496 210.542 179.143 210.542 183.642C210.542 188.142 214.189 191.789 218.689 191.789Z" fill="#418AFF"/>
<path d="M243.129 212.793C246.924 212.793 250 209.717 250 205.923C250 202.128 246.924 199.052 243.129 199.052C239.334 199.052 236.258 202.128 236.258 205.923C236.258 209.717 239.334 212.793 243.129 212.793Z" fill="#418AFF"/>
<path d="M5.88928 37.8867C9.14184 37.8867 11.7786 35.25 11.7786 31.9975C11.7786 28.7451 9.14184 26.1084 5.88928 26.1084C2.63672 26.1084 0 28.7451 0 31.9975C0 35.25 2.63672 37.8867 5.88928 37.8867Z" fill="#FBB03B"/>
<path d="M29.5447 60.6579C33.4478 60.6579 36.6118 57.4939 36.6118 53.591C36.6118 49.688 33.4478 46.524 29.5447 46.524C25.6416 46.524 22.4775 49.688 22.4775 53.591C22.4775 57.4939 25.6416 60.6579 29.5447 60.6579Z" fill="#FBB03B"/>
<path d="M53.1996 83.4292C57.7532 83.4292 61.4446 79.7379 61.4446 75.1844C61.4446 70.6309 57.7532 66.9396 53.1996 66.9396C48.646 66.9396 44.9546 70.6309 44.9546 75.1844C44.9546 79.7379 48.646 83.4292 53.1996 83.4292Z" fill="#FBB03B"/>
<path d="M76.855 106.102C82.0591 106.102 86.2778 101.884 86.2778 96.6797C86.2778 91.4757 82.0591 87.2571 76.855 87.2571C71.6509 87.2571 67.4321 91.4757 67.4321 96.6797C67.4321 101.884 71.6509 106.102 76.855 106.102Z" fill="#FBB03B"/>
<path d="M100.412 128.874C106.267 128.874 111.013 124.128 111.013 118.273C111.013 112.419 106.267 107.673 100.412 107.673C94.5576 107.673 89.8115 112.419 89.8115 118.273C89.8115 124.128 94.5576 128.874 100.412 128.874Z" fill="#FBB03B"/>
<path d="M124.068 151.645C130.573 151.645 135.846 146.371 135.846 139.867C135.846 133.362 130.573 128.088 124.068 128.088C117.563 128.088 112.289 133.362 112.289 139.867C112.289 146.371 117.563 151.645 124.068 151.645Z" fill="#FBB03B"/>
<path d="M148.606 173.434C154.84 173.434 159.894 168.381 159.894 162.147C159.894 155.913 154.84 150.86 148.606 150.86C142.372 150.86 137.318 155.913 137.318 162.147C137.318 168.381 142.372 173.434 148.606 173.434Z" fill="#FBB03B"/>
<path d="M173.047 195.322C179.01 195.322 183.844 190.489 183.844 184.526C183.844 178.563 179.01 173.729 173.047 173.729C167.084 173.729 162.25 178.563 162.25 184.526C162.25 190.489 167.084 195.322 173.047 195.322Z" fill="#FBB03B"/>
<path d="M197.487 217.112C203.179 217.112 207.794 212.498 207.794 206.806C207.794 201.114 203.179 196.5 197.487 196.5C191.795 196.5 187.181 201.114 187.181 206.806C187.181 212.498 191.795 217.112 197.487 217.112Z" fill="#FBB03B"/>
<path d="M222.026 239C227.447 239 231.841 234.606 231.841 229.185C231.841 223.764 227.447 219.37 222.026 219.37C216.605 219.37 212.21 223.764 212.21 229.185C212.21 234.606 216.605 239 222.026 239Z" fill="#FBB03B"/>
<path d="M32.3912 100.606C35.6438 100.606 38.2805 97.9691 38.2805 94.7166C38.2805 91.4642 35.6438 88.8275 32.3912 88.8275C29.1387 88.8275 26.502 91.4642 26.502 94.7166C26.502 97.9691 29.1387 100.606 32.3912 100.606Z" fill="#418AFF"/>
<path d="M56.5374 123.966C60.4946 123.966 63.7027 120.758 63.7027 116.801C63.7027 112.844 60.4946 109.636 56.5374 109.636C52.5801 109.636 49.3721 112.844 49.3721 116.801C49.3721 120.758 52.5801 123.966 56.5374 123.966Z" fill="#418AFF"/>
<path d="M80.7817 147.326C85.4979 147.326 89.3211 143.503 89.3211 138.787C89.3211 134.071 85.4979 130.248 80.7817 130.248C76.0654 130.248 72.2422 134.071 72.2422 138.787C72.2422 143.503 76.0654 147.326 80.7817 147.326Z" fill="#418AFF"/>
<path d="M104.927 170.686C110.348 170.686 114.743 166.292 114.743 160.871C114.743 155.45 110.348 151.056 104.927 151.056C99.5063 151.056 95.1118 155.45 95.1118 160.871C95.1118 166.292 99.5063 170.686 104.927 170.686Z" fill="#418AFF"/>
<path d="M129.074 191.494C133.79 191.494 137.613 187.671 137.613 182.955C137.613 178.239 133.79 174.416 129.074 174.416C124.357 174.416 120.534 178.239 120.534 182.955C120.534 187.671 124.357 191.494 129.074 191.494Z" fill="#418AFF"/>
<path d="M153.219 212.106C157.177 212.106 160.385 208.898 160.385 204.941C160.385 200.984 157.177 197.776 153.219 197.776C149.262 197.776 146.054 200.984 146.054 204.941C146.054 208.898 149.262 212.106 153.219 212.106Z" fill="#418AFF"/>
<path d="M177.464 232.915C180.717 232.915 183.353 230.278 183.353 227.025C183.353 223.773 180.717 221.136 177.464 221.136C174.211 221.136 171.575 223.773 171.575 227.025C171.575 230.278 174.211 232.915 177.464 232.915Z" fill="#418AFF"/>
</svg>
