<svg width="208" height="73" viewBox="0 0 208 73" fill="none" xmlns="http://www.w3.org/2000/svg">
<path d="M104.669 32.9459H107.459C108.24 32.9459 108.91 32.7203 109.356 32.2689C109.802 31.8176 110.026 31.1407 110.026 30.238V27.1917C110.026 26.0634 109.691 25.0479 109.133 24.2581C108.686 23.8068 108.129 23.2427 107.236 22.7914L106.678 22.5657C106.455 22.4529 106.343 22.34 106.232 22.34C105.897 22.1144 105.562 22.0016 105.339 21.7759C104.892 21.3246 104.558 20.8733 104.558 20.1963V17.2628C104.558 17.1499 104.669 17.0371 104.781 17.0371H107.124C107.347 17.0371 107.347 17.1499 107.347 17.2628V20.8733H109.914V17.1499C109.914 16.2473 109.691 15.5703 109.244 15.119C108.798 14.6677 108.129 14.442 107.347 14.442H104.558C103.777 14.442 103.107 14.6677 102.661 15.119C102.214 15.5703 101.991 16.2473 101.991 17.1499V20.1963C101.991 21.4374 102.326 22.34 102.884 23.1298C103.33 23.694 104 24.1453 104.892 24.5966L105.45 24.8223C105.674 24.9351 105.785 25.0479 105.897 25.0479C106.232 25.2736 106.566 25.3864 106.789 25.6121C107.236 26.0634 107.571 26.5147 107.571 27.0788V30.0124C107.571 30.1252 107.459 30.238 107.347 30.238H104.892C104.669 30.238 104.669 30.1252 104.669 30.0124V26.4019H102.103V30.1252C102.103 31.0278 102.326 31.7048 102.884 32.1561C103.219 32.7203 103.888 32.9459 104.669 32.9459Z" fill="white"/>
<path d="M121.296 25.0479H122.3C123.862 25.0479 124.978 24.5966 125.759 23.8068C126.429 23.017 126.764 22.0016 126.764 20.5348V17.2628C126.764 16.3601 126.54 15.796 126.094 15.2318C125.648 14.7805 124.978 14.5549 124.197 14.5549H118.841V33.0587H121.407V25.0479H121.296ZM121.296 17.1499H123.862C124.085 17.1499 124.085 17.2628 124.085 17.3756V20.5348C124.085 21.3246 123.974 21.7759 123.751 22.0016C123.528 22.2272 122.97 22.4529 122.3 22.4529H121.296V17.1499Z" fill="white"/>
<path d="M137.365 32.9459H140.154C140.935 32.9459 141.605 32.7203 142.051 32.2689C142.498 31.8176 142.721 31.1407 142.721 30.238V17.1499C142.721 16.2473 142.498 15.5703 142.051 15.119C141.605 14.6677 140.935 14.442 140.154 14.442H137.365C136.584 14.442 135.914 14.6677 135.468 15.119C135.021 15.5703 134.687 16.2473 134.687 17.1499V30.238C134.687 31.1407 134.91 31.8176 135.356 32.2689C135.914 32.7203 136.584 32.9459 137.365 32.9459ZM137.365 17.2628C137.365 17.1499 137.476 17.0371 137.588 17.0371H139.931C140.154 17.0371 140.154 17.1499 140.154 17.2628V30.1252C140.154 30.238 140.043 30.3509 139.931 30.3509H137.588C137.365 30.3509 137.365 30.238 137.365 30.1252V17.2628Z" fill="white"/>
<path d="M153.991 25.0479H154.996C155.665 25.0479 156.223 25.1608 156.446 25.4992C156.669 25.7249 156.781 26.289 156.781 26.966V32.9459H159.348V27.1917C159.348 26.1762 159.124 25.2736 158.79 24.7094C158.455 24.0325 157.897 23.694 157.116 23.694C157.897 23.5812 158.455 23.2427 158.79 22.6785C159.124 22.1144 159.348 21.3246 159.348 20.1963V17.1499C159.348 16.2473 159.124 15.6832 158.678 15.119C158.232 14.6677 157.562 14.442 156.781 14.442H151.425V32.9459H153.991V25.0479ZM153.991 17.1499H156.558C156.781 17.1499 156.781 17.2628 156.781 17.3756V20.5348C156.781 21.3246 156.669 21.7759 156.446 22.0016C156.223 22.2272 155.665 22.4529 154.996 22.4529H153.991V17.1499Z" fill="white"/>
<path d="M168.609 32.9459H171.176V17.1499H173.965V14.442H165.819V17.1499H168.609V32.9459Z" fill="white"/>
<path d="M97.5278 57.3169C98.1974 56.5271 98.5321 55.5116 98.5321 53.932V52.6909C98.5321 51.6754 98.309 50.7728 97.9742 50.2087C97.6394 49.5317 97.0815 49.1932 96.3004 49.1932C97.0815 49.0804 97.5278 48.7419 97.9742 48.1778C98.309 47.6136 98.5321 46.8238 98.5321 45.6955V42.6492C98.5321 41.7465 98.3089 41.0696 97.8626 40.6183C97.4162 40.1669 96.7467 39.9413 95.9656 39.9413H90.6094V58.4451H94.1802C95.6308 58.558 96.7467 58.1067 97.5278 57.3169ZM95.6308 42.6492C95.854 42.6492 95.854 42.762 95.854 42.8748V46.034C95.854 46.8238 95.7424 47.2751 95.5192 47.5008C95.2961 47.7264 94.7381 47.9521 94.0686 47.9521H93.0643V42.6492H95.6308ZM93.0643 50.5472H94.0686C94.7381 50.5472 95.2961 50.66 95.5192 50.9985C95.7424 51.2241 95.854 51.7883 95.854 52.4652V53.932C95.854 54.7218 95.7424 55.1731 95.4077 55.3988C95.1845 55.6244 94.6265 55.8501 93.957 55.8501H92.9527V50.5472H93.0643Z" fill="white"/>
<path d="M107.013 58.558H114.043V55.9629H109.691V50.5472H114.043V47.9521H109.691V42.6492H114.043V40.0541H107.013V58.558Z" fill="white"/>
<path d="M120.403 42.6492H123.193V58.558H125.76V42.6492H128.549V40.0541H120.403V42.6492Z" fill="white"/>
<path d="M135.133 42.6492H137.923V58.558H140.489V42.6492H143.167V40.0541H135.133V42.6492Z" fill="white"/>
<path d="M152.318 40.0541H149.751V58.558H152.318V40.0541Z" fill="white"/>
<path d="M163.365 50.0958L163.142 46.8238L163.7 49.4189L166.378 58.558H168.833V40.0541H166.266V48.5162L166.49 51.5626L165.932 49.1932L163.254 40.0541H160.91V58.558H163.365V50.0958Z" fill="white"/>
<path d="M181.888 58.558H185.459V47.9521H181.33V50.5472H182.893V55.8501H181.888C181.219 55.8501 180.661 55.7373 180.438 55.3988C180.214 55.1731 180.103 54.609 180.103 53.8192V42.8748C180.103 42.762 180.215 42.6492 180.326 42.6492H182.669C182.893 42.6492 182.893 42.762 182.893 42.8748V46.4853H185.459V42.762C185.459 41.8594 185.236 41.2952 184.79 40.7311C184.343 40.2798 183.674 40.0541 182.893 40.0541H180.103C179.322 40.0541 178.652 40.2798 178.206 40.7311C177.76 41.1824 177.425 41.8594 177.425 42.762V54.0448C177.425 55.5116 177.76 56.6399 178.429 57.4297C179.099 58.1067 180.326 58.558 181.888 58.558Z" fill="white"/>
<path d="M205.768 0H72.1974H67.8455H2.23176C1.00429 0 0 1.01546 0 2.25657V70.7434C0 71.9846 1.00429 73 2.23176 73H67.8455H72.1974H205.768C206.996 73 208 71.9846 208 70.7434V2.25657C208 1.01546 206.996 0 205.768 0ZM67.8455 68.5997H4.35193V4.40031H67.8455V68.5997ZM203.76 68.5997H72.1974V4.40031H203.648V68.5997H203.76Z" fill="white"/>
<path d="M30.1287 57.6553H34.1459V36.2179L18.7467 20.9861L15.957 23.8068L30.1287 38.2488V57.6553Z" fill="white"/>
<path d="M38.0518 57.6553H42.0689V38.2488L56.2406 23.8068L53.4509 20.9861L38.0518 36.2179V57.6553Z" fill="white"/>
<path d="M50.549 18.1654L47.7593 15.3447L36.0426 27.0788L24.4374 15.3447L21.5361 18.1654L36.0426 32.6074L50.549 18.1654Z" fill="white"/>
</svg>
