<svg width="159" height="163" viewBox="0 0 159 163" fill="none" xmlns="http://www.w3.org/2000/svg">
<g clip-path="url(#clip0)">
<path d="M124.424 123.47C121.477 123.448 119.071 125.818 119.048 128.765C119.026 131.711 121.396 134.118 124.343 134.14C127.289 134.162 129.696 131.792 129.718 128.846C129.741 125.899 127.37 123.492 124.424 123.47Z" fill="#418AFF"/>
<path d="M108.269 107.964C105.175 107.94 102.648 110.429 102.625 113.523C102.601 116.617 105.09 119.144 108.184 119.167C111.278 119.191 113.805 116.702 113.828 113.608C113.852 110.514 111.363 107.987 108.269 107.964Z" fill="#418AFF"/>
<path d="M92.115 92.2798C88.8248 92.2549 86.1373 94.9018 86.1123 98.192C86.0873 101.482 88.7343 104.17 92.0245 104.195C95.3147 104.22 98.0022 101.573 98.0272 98.2825C98.0522 94.9923 95.4052 92.3048 92.115 92.2798Z" fill="#418AFF"/>
<path d="M75.9602 76.7737C72.5227 76.7476 69.7149 79.5131 69.6887 82.9506C69.6626 86.3881 72.4281 89.1959 75.8657 89.222C79.3032 89.2481 82.111 86.4826 82.1371 83.0451C82.1632 79.6076 79.3977 76.7998 75.9602 76.7737Z" fill="#418AFF"/>
<path d="M59.8054 61.2675C56.2206 61.2402 53.2924 64.1243 53.2652 67.7091C53.238 71.2939 56.122 74.2221 59.7068 74.2493C63.2917 74.2765 66.2198 71.3925 66.247 67.8077C66.2743 64.2228 63.3902 61.2947 59.8054 61.2675Z" fill="#418AFF"/>
<path d="M43.6514 45.5835C39.8702 45.5547 36.7816 48.5968 36.7528 52.3781C36.7241 56.1593 39.7662 59.2479 43.5474 59.2767C47.3287 59.3054 50.4173 56.2633 50.446 52.482C50.4747 48.7008 47.4327 45.6122 43.6514 45.5835Z" fill="#418AFF"/>
<path d="M27.4966 30.0773C23.568 30.0474 20.3591 33.208 20.3293 37.1366C20.2994 41.0652 23.46 44.2741 27.3886 44.304C31.3172 44.3338 34.5261 41.1732 34.556 37.2446C34.5858 33.316 31.4252 30.1071 27.4966 30.0773Z" fill="#418AFF"/>
<path d="M140.29 106.695C137.344 106.673 134.937 109.043 134.915 111.99C134.893 114.936 137.263 117.343 140.209 117.365C143.156 117.388 145.563 115.017 145.585 112.071C145.607 109.124 143.237 106.718 140.29 106.695Z" fill="#FBB03B"/>
<path d="M124.14 90.5667C120.703 90.5406 117.895 93.3061 117.869 96.7437C117.843 100.181 120.608 102.989 124.046 103.015C127.483 103.041 130.291 100.276 130.317 96.8382C130.343 93.4007 127.578 90.5929 124.14 90.5667Z" fill="#FBB03B"/>
<path d="M107.991 74.3492C104.062 74.3194 100.853 77.48 100.823 81.4086C100.794 85.3372 103.954 88.5461 107.883 88.5759C111.811 88.6058 115.02 85.4452 115.05 81.5166C115.08 77.588 111.919 74.3791 107.991 74.3492Z" fill="#FBB03B"/>
<path d="M91.8402 58.2206C87.4205 58.1871 83.8105 61.7427 83.7769 66.1624C83.7434 70.582 87.299 74.1921 91.7187 74.2257C96.1383 74.2592 99.7484 70.7036 99.782 66.2839C99.8155 61.8642 96.2599 58.2542 91.8402 58.2206Z" fill="#FBB03B"/>
<path d="M75.6906 42.0031C70.7799 41.9658 66.7687 45.9165 66.7314 50.8273C66.6941 55.738 70.6448 59.7492 75.5556 59.7865C80.4663 59.8238 84.4775 55.8731 84.5148 50.9623C84.5521 46.0516 80.6014 42.0404 75.6906 42.0031Z" fill="#FBB03B"/>
<path d="M59.5405 25.8745C54.1387 25.8335 49.7264 30.1793 49.6854 35.5811C49.6444 40.9829 53.9902 45.3952 59.392 45.4362C64.7938 45.4772 69.2061 41.1315 69.2471 35.7296C69.2881 30.3278 64.9424 25.9155 59.5405 25.8745Z" fill="#FBB03B"/>
<path d="M140.014 72.814C136.086 72.7841 132.877 75.9447 132.847 79.8733C132.817 83.8019 135.978 87.0108 139.906 87.0407C143.835 87.0705 147.044 83.9099 147.074 79.9813C147.103 76.0527 143.943 72.8438 140.014 72.814Z" fill="#418AFF"/>
<path d="M124.031 58.0205C120.447 57.9933 117.518 60.8773 117.491 64.4621C117.464 68.047 120.348 70.9751 123.933 71.0023C127.518 71.0296 130.446 68.1456 130.473 64.5607C130.5 60.9759 127.616 58.0477 124.031 58.0205Z" fill="#418AFF"/>
<path d="M108.048 43.3159C104.856 43.2917 102.249 45.8596 102.225 49.0516C102.201 52.2436 104.769 54.8508 107.961 54.8751C111.153 54.8993 113.76 52.3314 113.784 49.1394C113.808 45.9474 111.24 43.3401 108.048 43.3159Z" fill="#418AFF"/>
<path d="M92.0657 28.5224C89.2174 28.5008 86.8909 30.7922 86.8693 33.6404C86.8477 36.4886 89.1391 38.8151 91.9873 38.8368C94.8356 38.8584 97.1621 36.567 97.1837 33.7187C97.2053 30.8705 94.9139 28.544 92.0657 28.5224Z" fill="#418AFF"/>
<path d="M75.9947 13.7282C73.5394 13.7096 71.5338 15.6849 71.5151 18.1403C71.4965 20.5957 73.4718 22.6013 75.9272 22.6199C78.3826 22.6386 80.3882 20.6632 80.4068 18.2078C80.4255 15.7525 78.4501 13.7469 75.9947 13.7282Z" fill="#418AFF"/>
<path d="M154.061 61.5386C152.097 61.5237 150.492 63.104 150.477 65.0683C150.462 67.0326 152.043 68.6371 154.007 68.652C155.971 68.6669 157.576 67.0866 157.59 65.1223C157.605 63.158 156.025 61.5535 154.061 61.5386Z" fill="#418AFF"/>
<path d="M138.082 46.3005C136.216 46.2864 134.691 47.7876 134.677 49.6537C134.663 51.5198 136.164 53.044 138.03 53.0582C139.896 53.0724 141.421 51.5711 141.435 49.705C141.449 47.839 139.948 46.3147 138.082 46.3005Z" fill="#418AFF"/>
<path d="M122.102 31.1514C120.383 31.1383 118.979 32.5211 118.966 34.2398C118.953 35.9586 120.336 37.3625 122.054 37.3756C123.773 37.3886 125.177 36.0059 125.19 34.2871C125.203 32.5683 123.82 31.1644 122.102 31.1514Z" fill="#418AFF"/>
<path d="M106.035 15.8237C104.414 15.8114 103.09 17.1151 103.078 18.7357C103.066 20.3562 104.37 21.6799 105.99 21.6922C107.611 21.7045 108.934 20.4008 108.947 18.7802C108.959 17.1597 107.655 15.836 106.035 15.8237Z" fill="#418AFF"/>
<path d="M90.0547 0.674523C88.5814 0.663336 87.3781 1.84855 87.3669 3.32177C87.3557 4.79499 88.5409 5.99834 90.0141 6.00953C91.4874 6.02072 92.6907 4.8355 92.7019 3.36228C92.7131 1.88906 91.5279 0.685711 90.0547 0.674523Z" fill="#418AFF"/>
<path d="M125.81 151.758C122.864 151.735 120.457 154.106 120.434 157.052C120.412 159.999 122.783 162.405 125.729 162.428C128.675 162.45 131.082 160.08 131.104 157.133C131.127 154.187 128.756 151.78 125.81 151.758Z" fill="#FBB03B"/>
<path d="M110.89 137.595C107.943 137.572 105.536 139.943 105.514 142.889C105.492 145.836 107.862 148.242 110.809 148.265C113.755 148.287 116.162 145.917 116.184 142.97C116.206 140.024 113.836 137.617 110.89 137.595Z" fill="#FBB03B"/>
<path d="M95.9687 123.521C93.0222 123.498 90.6155 125.869 90.5931 128.815C90.5708 131.762 92.9412 134.168 95.8876 134.191C98.8341 134.213 101.241 131.843 101.263 128.896C101.286 125.95 98.9151 123.543 95.9687 123.521Z" fill="#FBB03B"/>
<path d="M80.9594 109.357C78.0129 109.335 75.6062 111.705 75.5839 114.652C75.5615 117.598 77.9319 120.005 80.8784 120.027C83.8248 120.049 86.2315 117.679 86.2539 114.733C86.2763 111.786 83.9058 109.379 80.9594 109.357Z" fill="#FBB03B"/>
<path d="M66.0395 95.1941C63.093 95.1717 60.6863 97.5421 60.664 100.489C60.6416 103.435 63.012 105.842 65.9584 105.864C68.9049 105.886 71.3116 103.516 71.334 100.57C71.3563 97.6232 68.9859 95.2165 66.0395 95.1941Z" fill="#FBB03B"/>
<path d="M51.1186 81.12C48.1721 81.0977 45.7654 83.4681 45.743 86.4145C45.7207 89.361 48.0911 91.7677 51.0375 91.7901C53.984 91.8124 56.3907 89.442 56.4131 86.4956C56.4354 83.5491 54.065 81.1424 51.1186 81.12Z" fill="#FBB03B"/>
<path d="M36.1982 66.9571C33.2517 66.9347 30.845 69.3051 30.8227 72.2516C30.8003 75.198 33.1707 77.6047 36.1171 77.6271C39.0636 77.6494 41.4703 75.279 41.4927 72.3326C41.515 69.3861 39.1446 66.9794 36.1982 66.9571Z" fill="#FBB03B"/>
<path d="M21.2773 52.883C18.3308 52.8606 15.9241 55.2311 15.9017 58.1775C15.8794 61.1239 18.2498 63.5306 21.1962 63.553C24.1427 63.5754 26.5494 61.205 26.5718 58.2585C26.5941 55.3121 24.2237 52.9054 21.2773 52.883Z" fill="#FBB03B"/>
<path d="M6.26799 38.7193C3.32154 38.697 0.914835 41.0674 0.89246 44.0138C0.870085 46.9603 3.24051 49.367 6.18696 49.3894C9.13341 49.4117 11.5401 47.0413 11.5625 44.0949C11.5849 41.1484 9.21443 38.7417 6.26799 38.7193Z" fill="#FBB03B"/>
</g>
<defs>
<clipPath id="clip0">
<rect x="156.85" y="162.664" width="156.854" height="161.478" transform="rotate(-179.565 156.85 162.664)" fill="white"/>
</clipPath>
</defs>
</svg>
